<svg xmlns="http://www.w3.org/2000/svg" viewBox="0 0 640 180" role="img" aria-labelledby="title desc">
  <title id="title">Enumclaw Forest Estate</title><desc id="desc">Evergreen trees above a craftsman roofline.</desc>
  <g fill="none" stroke="#A97C50" stroke-width="6" stroke-linecap="round" stroke-linejoin="round">
    <path d="M190 70h55l75-52 75 52h55"/>
  </g>
  <g fill="#1F3128">
    <path d="M270 45l24-38 24 38h-14l20 28h-60l20-28z"/>
    <path d="M320 34l29-47 29 47h-16l23 34h-70l22-34z"/>
    <path d="M375 47l22-34 22 34h-12l18 25h-56l18-25z"/>
    <rect x="313" y="47" width="14" height="23"/>
    <rect x="385" y="54" width="12" height="18"/>
    <rect x="286" y="52" width="12" height="20"/>
  </g>
  <rect x="312" y="45" width="16" height="16" fill="#FAF8F4"/>
  <path d="M320 45v16M312 53h16" stroke="#1F3128" stroke-width="2"/>
  <text x="320" y="117" text-anchor="middle" fill="#1F3128" font-family="Georgia,serif" font-size="38" letter-spacing="8">ENUMCLAW</text>
  <text x="320" y="158" text-anchor="middle" fill="#1F3128" font-family="Georgia,serif" font-size="34" letter-spacing="7">FOREST ESTATE</text>
</svg>
